{
  "accessors": [
    {
      "bufferView": 2,
      "componentType": 5126,
      "count": 481,
      "max": [
        14.906606674194336,
        3.791743040084839,
        45.126373291015625
      ],
      "min": [
        -14.906606674194336,
        -3.9183690547943115,
        0.08895900100469589
      ],
      "type": "VEC3"
    },
    {
      "bufferView": 2,
      "byteOffset": 5772,
      "componentType": 5126,
      "count": 481,
      "max": [
        0.998988926410675,
        0.9999988079071045,
        0.9941515326499939
      ],
      "min": [
        -0.998988926410675,
        -0.9999604225158691,
        -0.9926579594612122
      ],
      "type": "VEC3"
    },
    {
      "bufferView": 1,
      "componentType": 5126,
      "count": 481,
      "max": [
        0.9849669933319092,
        0.9893980026245117
      ],
      "min": [
        0.01082799956202507,
        0.009926999919116497
      ],
      "type": "VEC2"
    },
    {
      "bufferView": 0,
      "componentType": 5125,
      "count": 2232,
      "type": "SCALAR"
    }
  ],
  "asset": {
    "extras": {
      "author": "Jim Wing (https://sketchfab.com/JimWing)",
      "license": "CC-BY-4.0 (http://creativecommons.org/licenses/by/4.0/)",
      "source": "https://sketchfab.com/3d-models/90s-survival-horror-protagonist-psx-style-cb4302ee78264867ab1d77b2cb59eacd",
      "title": "90s Survival Horror Protagonist (PSX Style)"
    },
    "generator": "Sketchfab-17.7.0",
    "version": "2.0"
  },
  "bufferViews": [
    {
      "buffer": 0,
      "byteLength": 8928,
      "name": "floatBufferViews",
      "target": 34963
    },
    {
      "buffer": 0,
      "byteLength": 3848,
      "byteOffset": 8928,
      "byteStride": 8,
      "name": "floatBufferViews",
      "target": 34962
    },
    {
      "buffer": 0,
      "byteLength": 11544,
      "byteOffset": 12776,
      "byteStride": 12,
      "name": "floatBufferViews",
      "target": 34962
    }
  ],
  "buffers": [
    {
      "byteLength": 24320,
      "uri": "scene.bin"
    }
  ],
  "extensionsUsed": [
    "KHR_materials_unlit"
  ],
  "images": [
    {
      "uri": "textures/CharacterMat_baseColor.png"
    }
  ],
  "materials": [
    {
      "doubleSided": true,
      "extensions": {
        "KHR_materials_unlit": {}
      },
      "name": "CharacterMat",
      "pbrMetallicRoughness": {
        "baseColorTexture": {
          "index": 0
        },
        "metallicFactor": 0.0
      }
    }
  ],
  "meshes": [
    {
      "name": "Object_0",
      "primitives": [
        {
          "attributes": {
            "NORMAL": 1,
            "POSITION": 0,
            "TEXCOORD_0": 2
          },
          "indices": 3,
          "material": 0,
          "mode": 4
        }
      ]
    }
  ],
  "nodes": [
    {
      "children": [
        1
      ],
      "matrix": [
        0.03999999910593033,
        0.0,
        0.0,
        0.0,
        0.0,
        8.881783998477905e-18,
        -0.03999999910593033,
        0.0,
        0.0,
        0.03999999910593033,
        8.881783998477905e-18,
        0.0,
        0.0,
        0.0,
        0.0,
        1.0
      ],
      "name": "Sketchfab_model"
    },
    {
      "children": [
        2
      ],
      "name": "750bf46668044c6aa58e5048a1b43f5d.obj.cleaner.materialmerger.gles"
    },
    {
      "mesh": 0,
      "name": "Object_2"
    }
  ],
  "samplers": [
    {
      "magFilter": 9728,
      "minFilter": 9986,
      "wrapS": 10497,
      "wrapT": 10497
    }
  ],
  "scene": 0,
  "scenes": [
    {
      "name": "Sketchfab_Scene",
      "nodes": [
        0
      ]
    }
  ],
  "textures": [
    {
      "sampler": 0,
      "source": 0
    }
  ]
}
